PathFileType	4	(X/Y/Z)	c:\Git\powerlifing_model_clean\simulations\HC835B\Session1\HC835B_STD_0001\marker_experimental.trc
DataRate	CameraRate	NumFrames	NumMarkers	Units	OrigDataRate	OrigDataStartFrame	OrigNumFrames
240.000000	240.000000	4	48	mm	240.000000	210	337
Frame#	Time	RPSI			LPSI			RASI			LASI			RGT			RTH1			RTH2			RTH3			RTH4			RLK			RMK			RSK1			RSK2			RSK3			RSK4			RLA			RMA			RCAL1			RCAL2			RCAL3			RST			RPT			RTN			RFMB			RSMB			RVMB			RFMH			RSMH			RVMH			RPM			LGT			LTH1			LTH2			LTH3			LTH4			LLK			LMK			LSK1			LSK2			LSK3			LSK4			LLA			LMA			LCAL1			LCAL2			LCAL3			LFMH			LVMH			
		X1	Y1	Z1	X2	Y2	Z2	X3	Y3	Z3	X4	Y4	Z4	X5	Y5	Z5	X6	Y6	Z6	X7	Y7	Z7	X8	Y8	Z8	X9	Y9	Z9	X10	Y10	Z10	X11	Y11	Z11	X12	Y12	Z12	X13	Y13	Z13	X14	Y14	Z14	X15	Y15	Z15	X16	Y16	Z16	X17	Y17	Z17	X18	Y18	Z18	X19	Y19	Z19	X20	Y20	Z20	X21	Y21	Z21	X22	Y22	Z22	X23	Y23	Z23	X24	Y24	Z24	X25	Y25	Z25	X26	Y26	Z26	X27	Y27	Z27	X28	Y28	Z28	X29	Y29	Z29	X30	Y30	Z30	X31	Y31	Z31	X32	Y32	Z32	X33	Y33	Z33	X34	Y34	Z34	X35	Y35	Z35	X36	Y36	Z36	X37	Y37	Z37	X38	Y38	Z38	X39	Y39	Z39	X40	Y40	Z40	X41	Y41	Z41	X42	Y42	Z42	X43	Y43	Z43	X44	Y44	Z44	X45	Y45	Z45	X46	Y46	Z46	X47	Y47	Z47	X48	Y48	Z48	

211	0.875	494.816131591797	1162.672973632813	-357.9783935546876	386.3239746093751	1160.137329101563	-354.3962707519532	554.8372192382814	1105.048828125	-561.8046875000001	315.6362304687501	1100.720581054688	-559.5582275390626	636.9590454101564	1023.907531738281	-452.8874511718751	639.4384155273439	836.285095214844	-463.4664001464845	627.4315795898439	819.205749511719	-520.6175537109376	629.7249755859376	753.4575805664064	-478.186004638672	606.5066528320314	737.2017211914064	-529.4329223632814	609.0703735351564	552.7078247070314	-459.4324340820314	483.3958740234376	538.6777954101564	-449.1788940429689	612.9373168945314	307.6402587890626	-361.8047485351563	614.9473876953126	288.0245666503907	-420.1297302246095	611.3304443359376	249.7878723144532	-372.7839660644532	600.2965087890626	231.8334350585938	-428.7652893066407	605.2609252929689	114.9295349121094	-359.5659484863282	521.9404907226564	124.2083969116211	-404.4967651367189	560.2779541015626	95.78936767578126	-304.9489135742188	528.7148437500001	58.41124725341798	-314.4901428222657	592.8720092773439	59.07314300537111	-308.8701782226563	517.3604125976564	76.35147857666017	-380.8300781250001	618.1801147460939	72.29998016357423	-367.2716369628907	530.4301147460939	94.49529266357423	-438.6007690429689	537.0079345703126	78.12712860107423	-469.5917053222657	586.2217407226564	101.7410049438477	-477.6401672363282	632.2269897460939	47.7613754272461	-410.3188781738282	537.2528686523439	50.7148895263672	-527.4249267578126	591.9770507812501	65.62612152099611	-537.6792602539064	648.2338256835939	42.23337936401368	-490.6203613281251	582.6180419921876	53.05260086059572	-596.9783935546876	244.4689178466797	1013.017883300781	-447.793914794922	238.8805389404297	830.945495605469	-446.5052795410157	241.9853210449219	813.5715332031252	-504.6548767089845	242.9664764404297	746.2716674804689	-459.4777221679689	262.8865051269532	730.8594360351564	-515.2891235351564	265.5198059082032	564.1523437500001	-443.4935302734376	396.5483398437501	553.7209472656251	-444.4913024902345	257.3970336914063	300.4178466796876	-355.4417419433594	251.3040161132813	279.3186950683594	-403.9773559570314	257.2328796386719	245.1687011718751	-368.5690917968751	267.5112609863282	225.7856903076172	-420.6760864257814	259.4195556640626	115.5715484619141	-363.4657592773438	349.4202270507813	123.8165130615235	-400.9844055175782	306.7109985351563	95.08048248291017	-303.4744262695313	275.8579101562501	58.45909881591798	-303.6416320800782	334.1974792480469	56.67221832275392	-308.0982055664063	344.6994323730469	55.08854293823244	-530.8093261718751	229.7081604003907	41.47851181030274	-493.0181274414064	
212	0.8791666666666667	494.825408935547	1162.651000976563	-358.0277709960938	386.3386840820314	1160.143920898438	-354.4252624511719	554.8701782226564	1105.075561523438	-561.8311767578126	315.6443481445313	1100.697631835938	-559.5955200195314	636.9678344726564	1023.915893554688	-452.9259643554689	639.4233398437501	836.288513183594	-463.4770812988282	627.4458007812501	819.201110839844	-520.6375122070314	629.7479858398439	753.4609375000001	-478.1979064941407	606.5301513671876	737.1745605468751	-529.4356689453126	609.1002807617189	552.7404785156251	-459.4134826660157	483.3999938964845	538.6351928710939	-449.1917724609376	612.9385375976564	307.6607055664063	-361.7835693359376	614.9755249023439	288.0162963867188	-420.1098937988282	611.3419189453126	249.819320678711	-372.7919006347657	600.3394165039064	231.8609161376954	-428.745330810547	605.2404174804689	114.873291015625	-359.6388244628907	521.9376220703126	124.2390289306641	-404.5367431640626	560.3010253906251	95.76828002929689	-304.9851684570313	528.6949462890626	58.42199707031251	-314.4919128417969	592.8762817382814	59.05678939819337	-308.8916320800782	517.3676757812501	76.36536407470705	-380.8212585449219	618.1955566406251	72.29215240478517	-367.2704162597657	530.4387817382814	94.55368041992189	-438.5592041015626	537.0291748046876	78.10324859619142	-469.5813598632814	586.2400512695314	101.7135086059571	-477.645477294922	632.1183471679689	47.73381042480469	-410.3019409179689	537.3228759765626	50.63918304443361	-527.4329833984376	592.0006713867189	65.60412597656251	-537.6618041992189	648.2691040039064	42.24712753295899	-490.6015930175782	582.6232299804689	53.06964492797853	-596.9812011718751	244.4747161865235	1013.008544921875	-447.8049316406251	238.8967285156251	830.9599609375002	-446.5252075195314	241.9899597167969	813.538024902344	-504.6776733398439	242.9432067871094	746.2884521484376	-459.506805419922	262.8691101074219	730.8996582031251	-515.3257446289064	265.5505676269532	564.1711425781251	-443.5005187988282	396.560272216797	553.7080078125001	-444.4928283691407	257.3996582031251	300.4366149902344	-355.4345703125001	251.3023376464844	279.3350219726563	-403.9743041992189	257.2225341796876	245.1787109375001	-368.5755310058594	267.5162658691407	225.7743225097657	-420.6651306152345	259.4151000976563	115.5081558227539	-363.4832458496094	349.4348144531251	123.8296661376953	-400.9918212890626	306.7033996582032	95.12395477294923	-303.4458923339844	275.8574523925782	58.49154663085939	-303.6517944335938	334.2003784179688	56.67736434936525	-308.1082763671876	344.6993408203126	55.09449386596681	-530.7819213867189	229.7057342529297	41.48409271240235	-493.0337524414064	
213	0.8833333333333333	494.8228759765626	1162.679565429688	-358.0549011230469	386.3353271484376	1160.139892578125	-354.4507751464844	554.8751831054689	1105.0751953125	-561.8673706054689	315.6683349609376	1100.665283203125	-559.6135864257814	637.0265502929689	1023.945678710938	-452.9463195800782	639.4685668945314	836.325866699219	-463.4786987304689	627.4585571289064	819.2005004882815	-520.6405029296876	629.7426757812501	753.4567260742189	-478.1904296875001	606.5372314453126	737.1677246093751	-529.4003295898439	609.1089477539064	552.7239990234376	-459.4070129394532	483.4113159179689	538.6324462890626	-449.1644592285157	612.9222412109376	307.6450195312501	-361.7730407714844	614.9603881835939	288.0298156738282	-420.111297607422	611.3377075195314	249.7904357910157	-372.7627868652344	600.3645019531251	231.8672943115235	-428.7539062500001	605.3173217773439	114.8544387817383	-359.6465148925782	521.9594116210939	124.25927734375	-404.5119628906251	560.3038940429689	95.76490020751955	-304.9816894531251	528.6997070312501	58.42214584350587	-314.4889831542969	592.8793945312501	59.08278274536134	-308.8954162597657	517.3772583007814	76.35180664062501	-380.8519897460938	618.1818237304689	72.29264068603517	-367.2763061523438	530.4518432617189	94.54173278808595	-438.5647277832032	537.0009765625001	78.14128875732423	-469.6215820312501	586.2402954101564	101.7362213134766	-477.6453552246095	632.2261352539064	47.77987289428712	-410.2955017089845	537.3519897460939	50.6613121032715	-527.4240112304689	591.9746704101564	65.62886810302736	-537.6701660156251	648.2684326171876	42.23337554931641	-490.6043090820314	582.6445922851564	53.05299758911134	-596.9698486328126	244.4692535400391	1013.027526855469	-447.8182067871095	238.8986968994141	830.9624023437502	-446.5279541015626	241.9892272949219	813.5611572265627	-504.6856689453126	242.9895629882813	746.2636718750001	-459.499969482422	262.8714294433594	730.8872680664064	-515.3173828125001	265.5659179687501	564.1762084960939	-443.5218505859376	396.5521545410157	553.7015380859376	-444.5184631347657	257.3989562988282	300.4454650878907	-355.4301147460938	251.3096771240235	279.3095092773438	-403.9331970214845	257.2516174316407	245.2076110839844	-368.5954895019532	267.5397033691407	225.7590332031251	-420.6838684082032	259.4173583984376	115.5687866210938	-363.4609375000001	349.4651184082032	123.8487091064453	-400.9786682128907	306.6999816894532	95.09622955322267	-303.4739379882813	275.8746643066407	58.46461105346681	-303.6548156738282	334.2018432617188	56.65927886962892	-308.0972900390626	344.6980590820313	55.09865188598634	-530.7518920898439	229.7227172851563	41.45561218261719	-493.0441284179689	
214	0.8875	494.8311462402345	1162.693603515625	-358.0837707519532	386.3433532714845	1160.151977539063	-354.4785156250001	554.8831787109376	1105.083862304688	-561.8895874023439	315.6707763671876	1100.684814453125	-559.6593627929689	636.9913940429689	1023.92333984375	-452.9822998046876	639.4265747070314	836.3110961914065	-463.4841308593751	627.4503173828126	819.1821899414065	-520.6332397460939	629.7514648437501	753.4742431640626	-478.1857299804689	606.5235595703126	737.1657104492189	-529.4027709960939	609.1445922851564	552.7503662109376	-459.3695068359376	483.4468994140626	538.7011718750001	-449.1195373535157	612.9528198242189	307.6510925292969	-361.7795104980469	614.9724121093751	288.0030212402344	-420.0839233398439	611.3797607421876	249.8238220214844	-372.7784118652344	600.3526000976564	231.8641967773438	-428.7462768554689	605.2944946289064	114.8806610107422	-359.6379089355469	521.9641113281251	124.2408599853516	-404.5355834960939	560.2792358398439	95.75756072998048	-304.9801940917969	528.7069702148439	58.44234085083009	-314.4906005859376	592.8870239257814	59.0664405822754	-308.8838500976563	517.3764648437501	76.3719940185547	-380.8540344238282	618.2008056640626	72.2992630004883	-367.2757568359376	530.4305419921876	94.53004455566408	-438.5486755371095	537.0252685546876	78.10920715332033	-469.5842590332032	586.2297973632814	101.7431030273438	-477.6558532714845	632.1703491210939	47.73250961303712	-410.2997131347657	537.2815551757814	50.72282791137697	-527.4774169921876	592.0007934570314	65.61434173583986	-537.6661987304689	648.2562255859376	42.23079681396485	-490.6100158691407	582.6412963867189	53.0913543701172	-596.9714965820314	244.4871368408204	1013.011962890625	-447.8494567871095	238.9099731445313	830.9645996093752	-446.5148010253907	241.9972534179688	813.5572509765627	-504.6721496582032	243.0001983642579	746.2683105468751	-459.5179443359376	262.9236450195313	730.8618774414064	-515.3083496093751	265.5642089843751	564.1708984375001	-443.5236816406251	396.5928955078126	553.7082519531251	-444.5047607421876	257.4200439453126	300.4181823730469	-355.4656982421876	251.3533630371094	279.2875671386719	-403.9908752441407	257.2484741210938	245.1768188476563	-368.5639343261719	267.5233154296876	225.8184051513672	-420.6494445800782	259.4196777343751	115.5633316040039	-363.4672546386719	349.4366149902344	123.8373794555664	-400.985565185547	306.7155151367188	95.1169891357422	-303.4466857910157	275.8637390136719	58.47750091552736	-303.6364746093751	334.2113037109376	56.6663055419922	-308.1051635742188	344.7048950195313	55.11744689941408	-530.8059082031251	229.7134399414063	41.47850418090821	-493.0509338378907	
